<svg fill="none" xmlns="http://www.w3.org/2000/svg">

    <symbol viewBox="0 0 24 24" id="catalog" ><path d="M20,8H8A3,3,0,0,1,8,2H20a1,1,0,0,1,1,1V7A1,1,0,0,1,20,8ZM8,4A1,1,0,0,0,8,6H19V4Z"/><path  d="M19,22H5a3,3,0,0,1,0-6H19a1,1,0,0,1,1,1v4A1,1,0,0,1,19,22ZM5,18a1,1,0,0,0,0,2H18V18Z"/><path d="M17,12H5A3,3,0,0,1,5,6H17a1,1,0,0,1,0,2H5a1,1,0,0,0,0,2H17a1,1,0,0,1,0,2Z"/><path d="M21,18H10a4,4,0,0,1,0-8H21a1,1,0,0,1,0,2H10a2,2,0,0,0,0,4H20V14a1,1,0,0,1,2,0v3A1,1,0,0,1,21,18Z"/></symbol>

    <symbol viewBox="0 0 24 24" id="contacts"><path d="M5.875 12.5729C5.30847 11.2498 5 9.84107 5 8.51463C5 4.9167 8.13401 2 12 2C15.866 2 19 4.9167 19 8.51463C19 12.0844 16.7658 16.2499 13.2801 17.7396C12.4675 18.0868 11.5325 18.0868 10.7199 17.7396C9.60664 17.2638 8.62102 16.5151 7.79508 15.6" /> <path d="M14 9C14 10.1046 13.1046 11 12 11C10.8954 11 10 10.1046 10 9C10 7.89543 10.8954 7 12 7C13.1046 7 14 7.89543 14 9Z" /> <path d="M20.9605 15.5C21.6259 16.1025 22 16.7816 22 17.5C22 18.4251 21.3797 19.285 20.3161 20M3.03947 15.5C2.37412 16.1025 2 16.7816 2 17.5C2 19.9853 6.47715 22 12 22C13.6529 22 15.2122 21.8195 16.5858 21.5"/></symbol>


    <symbol viewBox="0 0 24 24" id="info"> <path d="M12 17V11" />
        <circle cx="1" cy="1" r="1" transform="matrix(1 0 0 -1 11 9)" />
        <path d="M22 12C22 16.714 22 19.0711 20.5355 20.5355C19.0711 22 16.714 22 12 22C7.28595 22 4.92893 22 3.46447 20.5355C2 19.0711 2 16.714 2 12C2 7.28595 2 4.92893 3.46447 3.46447C4.92893 2 7.28595 2 12 2C16.714 2 19.0711 2 20.5355 3.46447C21.5093 4.43821 21.8356 5.80655 21.9449 8" /> </symbol>

    <symbol viewBox="0 0 24 24" id="podcast"><path d="M19 10V12C19 15.866 15.866 19 12 19M5 10V12C5 15.866 8.13401 19 12 19M12 19V22M8 22H16M12 15C10.3431 15 9 13.6569 9 12V5C9 3.34315 10.3431 2 12 2C13.6569 2 15 3.34315 15 5V12C15 13.6569 13.6569 15 12 15Z" /></symbol>

    <symbol viewBox="0 0 24 24" id="bookclub"><path d="M18 7.16C17.94 7.15 17.87 7.15 17.81 7.16C16.43 7.11 15.33 5.98 15.33 4.58C15.33 3.15 16.48 2 17.91 2C19.34 2 20.49 3.16 20.49 4.58C20.48 5.98 19.38 7.11 18 7.16Z" /> <path d="M16.9699 14.44C18.3399 14.67 19.8499 14.43 20.9099 13.72C22.3199 12.78 22.3199 11.24 20.9099 10.3C19.8399 9.59004 18.3099 9.35003 16.9399 9.59003" /> <path d="M5.96998 7.16C6.02998 7.15 6.09998 7.15 6.15998 7.16C7.53998 7.11 8.63998 5.98 8.63998 4.58C8.63998 3.15 7.48998 2 6.05998 2C4.62998 2 3.47998 3.16 3.47998 4.58C3.48998 5.98 4.58998 7.11 5.96998 7.16Z" /> <path d="M6.99994 14.44C5.62994 14.67 4.11994 14.43 3.05994 13.72C1.64994 12.78 1.64994 11.24 3.05994 10.3C4.12994 9.59004 5.65994 9.35003 7.02994 9.59003" /> <path d="M12 14.63C11.94 14.62 11.87 14.62 11.81 14.63C10.43 14.58 9.32996 13.45 9.32996 12.05C9.32996 10.62 10.48 9.46997 11.91 9.46997C13.34 9.46997 14.49 10.63 14.49 12.05C14.48 13.45 13.38 14.59 12 14.63Z" /> <path d="M9.08997 17.78C7.67997 18.72 7.67997 20.26 9.08997 21.2C10.69 22.27 13.31 22.27 14.91 21.2C16.32 20.26 16.32 18.72 14.91 17.78C13.32 16.72 10.69 16.72 9.08997 17.78Z" /></symbol>


    <symbol viewBox="0 0 24 24" id="login"><path d="M20 12C20 7.58172 16.4183 4 12 4M12 20C14.5264 20 16.7792 18.8289 18.2454 17" /> <path d="M4 12H14M14 12L11 9M14 12L11 15" /></symbol>

    <symbol viewBox="0 0 24 24" id="logout"> <path d="M10 12H20M20 12L17 9M20 12L17 15"/> <path d="M4 12C4 7.58172 7.58172 4 12 4M12 20C9.47362 20 7.22075 18.8289 5.75463 17"/> </symbol>


    <symbol viewBox="0 0 24 24" id="registration">
        <path d="M22 10.5V12C22 16.714 22 19.0711 20.5355 20.5355C19.0711 22 16.714 22 12 22C7.28595 22 4.92893 22 3.46447 20.5355C2 19.0711 2 16.714 2 12C2 7.28595 2 4.92893 3.46447 3.46447C4.92893 2 7.28595 2 12 2H13.5"/>
        <path d="M16.652 3.45506L17.3009 2.80624C18.3759 1.73125 20.1188 1.73125 21.1938 2.80624C22.2687 3.88124 22.2687 5.62415 21.1938 6.69914L20.5449 7.34795M16.652 3.45506C16.652 3.45506 16.7331 4.83379 17.9497 6.05032C19.1662 7.26685 20.5449 7.34795 20.5449 7.34795M16.652 3.45506L10.6872 9.41993C10.2832 9.82394 10.0812 10.0259 9.90743 10.2487C9.70249 10.5114 9.52679 10.7957 9.38344 11.0965C9.26191 11.3515 9.17157 11.6225 8.99089 12.1646L8.41242 13.9M20.5449 7.34795L14.5801 13.3128C14.1761 13.7168 13.9741 13.9188 13.7513 14.0926C13.4886 14.2975 13.2043 14.4732 12.9035 14.6166C12.6485 14.7381 12.3775 14.8284 11.8354 15.0091L10.1 15.5876M10.1 15.5876L8.97709 15.9619C8.71035 16.0508 8.41626 15.9814 8.21744 15.7826C8.01862 15.5837 7.9492 15.2897 8.03811 15.0229L8.41242 13.9M10.1 15.5876L8.41242 13.9"/>
    </symbol>

    <symbol viewBox="0 0 24 24" id="close">
        <path d="M10.0303 8.96967C9.73741 8.67678 9.26253 8.67678 8.96964 8.96967C8.67675 9.26256 8.67675 9.73744 8.96964 10.0303L10.9393 12L8.96966 13.9697C8.67677 14.2626 8.67677 14.7374 8.96966 15.0303C9.26255 15.3232 9.73743 15.3232 10.0303 15.0303L12 13.0607L13.9696 15.0303C14.2625 15.3232 14.7374 15.3232 15.0303 15.0303C15.3232 14.7374 15.3232 14.2625 15.0303 13.9697L13.0606 12L15.0303 10.0303C15.3232 9.73746 15.3232 9.26258 15.0303 8.96969C14.7374 8.6768 14.2625 8.6768 13.9696 8.96969L12 10.9394L10.0303 8.96967Z"/>
        <path d="M12.0574 1.25H11.9426C9.63424 1.24999 7.82519 1.24998 6.41371 1.43975C4.96897 1.63399 3.82895 2.03933 2.93414 2.93414C2.03933 3.82895 1.63399 4.96897 1.43975 6.41371C1.24998 7.82519 1.24999 9.63422 1.25 11.9426V12.0574C1.24999 14.3658 1.24998 16.1748 1.43975 17.5863C1.63399 19.031 2.03933 20.1711 2.93414 21.0659C3.82895 21.9607 4.96897 22.366 6.41371 22.5603C7.82519 22.75 9.63423 22.75 11.9426 22.75H12.0574C14.3658 22.75 16.1748 22.75 17.5863 22.5603C19.031 22.366 20.1711 21.9607 21.0659 21.0659C21.9607 20.1711 22.366 19.031 22.5603 17.5863C22.75 16.1748 22.75 14.3658 22.75 12.0574V11.9426C22.75 9.63423 22.75 7.82519 22.5603 6.41371C22.366 4.96897 21.9607 3.82895 21.0659 2.93414C20.1711 2.03933 19.031 1.63399 17.5863 1.43975C16.1748 1.24998 14.3658 1.24999 12.0574 1.25ZM3.9948 3.9948C4.56445 3.42514 5.33517 3.09825 6.61358 2.92637C7.91356 2.75159 9.62177 2.75 12 2.75C14.3782 2.75 16.0864 2.75159 17.3864 2.92637C18.6648 3.09825 19.4355 3.42514 20.0052 3.9948C20.5749 4.56445 20.9018 5.33517 21.0736 6.61358C21.2484 7.91356 21.25 9.62177 21.25 12C21.25 14.3782 21.2484 16.0864 21.0736 17.3864C20.9018 18.6648 20.5749 19.4355 20.0052 20.0052C19.4355 20.5749 18.6648 20.9018 17.3864 21.0736C16.0864 21.2484 14.3782 21.25 12 21.25C9.62177 21.25 7.91356 21.2484 6.61358 21.0736C5.33517 20.9018 4.56445 20.5749 3.9948 20.0052C3.42514 19.4355 3.09825 18.6648 2.92637 17.3864C2.75159 16.0864 2.75 14.3782 2.75 12C2.75 9.62177 2.75159 7.91356 2.92637 6.61358C3.09825 5.33517 3.42514 4.56445 3.9948 3.9948Z"/>
    </symbol>

    <symbol viewBox="-0.5 0 25 25" id='menu'>
        <path d="M19 3.32001H16C14.8954 3.32001 14 4.21544 14 5.32001V8.32001C14 9.42458 14.8954 10.32 16 10.32H19C20.1046 10.32 21 9.42458 21 8.32001V5.32001C21 4.21544 20.1046 3.32001 19 3.32001Z"/>
        <path d="M8 3.32001H5C3.89543 3.32001 3 4.21544 3 5.32001V8.32001C3 9.42458 3.89543 10.32 5 10.32H8C9.10457 10.32 10 9.42458 10 8.32001V5.32001C10 4.21544 9.10457 3.32001 8 3.32001Z"/>
        <path d="M19 14.32H16C14.8954 14.32 14 15.2154 14 16.32V19.32C14 20.4246 14.8954 21.32 16 21.32H19C20.1046 21.32 21 20.4246 21 19.32V16.32C21 15.2154 20.1046 14.32 19 14.32Z"/>
        <path d="M8 14.32H5C3.89543 14.32 3 15.2154 3 16.32V19.32C3 20.4246 3.89543 21.32 5 21.32H8C9.10457 21.32 10 20.4246 10 19.32V16.32C10 15.2154 9.10457 14.32 8 14.32Z"/>
    </symbol>

    <symbol viewBox="0 0 24 24" id="calendar">
        <path d="M7 4V2.5"/>
        <path d="M17 4V2.5"/>
        <path d="M9 14.5L10.5 13V17"/>
        <path d="M13 16V14C13 13.4477 13.4477 13 14 13C14.5523 13 15 13.4477 15 14V16C15 16.5523 14.5523 17 14 17C13.4477 17 13 16.5523 13 16Z"/>
        <path d="M21.5 9H16.625H10.75M2 9H5.875"/>
        <path d="M14 22H10C6.22876 22 4.34315 22 3.17157 20.8284C2 19.6569 2 17.7712 2 14V12C2 8.22876 2 6.34315 3.17157 5.17157C4.34315 4 6.22876 4 10 4H14C17.7712 4 19.6569 4 20.8284 5.17157C22 6.34315 22 8.22876 22 12V14C22 17.7712 22 19.6569 20.8284 20.8284C20.1752 21.4816 19.3001 21.7706 18 21.8985"/>
    </symbol>

    <symbol viewBox="0 0 24 24" id="eye-closed">
        <path d="M22.2954 6.31083C22.6761 6.474 22.8524 6.91491 22.6893 7.29563L21.9999 7.00019C22.6893 7.29563 22.6894 7.29546 22.6893 7.29563L22.6886 7.29731L22.6875 7.2998L22.6843 7.30716L22.6736 7.33123C22.6646 7.35137 22.6518 7.37958 22.6352 7.41527C22.6019 7.48662 22.5533 7.58794 22.4888 7.71435C22.3599 7.967 22.1675 8.32087 21.9084 8.73666C21.4828 9.4197 20.8724 10.2778 20.0619 11.1304L21.0303 12.0987C21.3231 12.3916 21.3231 12.8665 21.0303 13.1594C20.7374 13.4523 20.2625 13.4523 19.9696 13.1594L18.969 12.1588C18.3093 12.7115 17.5528 13.2302 16.695 13.6564L17.6286 15.0912C17.8545 15.4383 17.7562 15.9029 17.409 16.1288C17.0618 16.3547 16.5972 16.2564 16.3713 15.9092L15.2821 14.2353C14.5028 14.4898 13.659 14.6628 12.7499 14.7248V16.5002C12.7499 16.9144 12.4141 17.2502 11.9999 17.2502C11.5857 17.2502 11.2499 16.9144 11.2499 16.5002V14.7248C10.3689 14.6647 9.54909 14.5004 8.78982 14.2586L7.71575 15.9093C7.48984 16.2565 7.02526 16.3548 6.67807 16.1289C6.33089 15.903 6.23257 15.4384 6.45847 15.0912L7.37089 13.689C6.5065 13.2668 5.74381 12.7504 5.07842 12.1984L4.11744 13.1594C3.82455 13.4523 3.34968 13.4523 3.05678 13.1594C2.76389 12.8665 2.76389 12.3917 3.05678 12.0988L3.98055 11.175C3.15599 10.3153 2.53525 9.44675 2.10277 8.75486C1.83984 8.33423 1.6446 7.97584 1.51388 7.71988C1.44848 7.59182 1.3991 7.48914 1.36537 7.41683C1.3485 7.38067 1.33553 7.35207 1.32641 7.33167L1.31562 7.30729L1.31238 7.29984L1.31129 7.29733L1.31088 7.29638C1.31081 7.2962 1.31056 7.29563 1.99992 7.00019L1.31088 7.29638C1.14772 6.91565 1.32376 6.474 1.70448 6.31083C2.08489 6.1478 2.52539 6.32374 2.68888 6.70381C2.68882 6.70368 2.68894 6.70394 2.68888 6.70381L2.68983 6.706L2.69591 6.71972C2.7018 6.73291 2.7114 6.7541 2.72472 6.78267C2.75139 6.83983 2.79296 6.92644 2.84976 7.03767C2.96345 7.26029 3.13762 7.58046 3.37472 7.95979C3.85033 8.72067 4.57157 9.70728 5.55561 10.6218C6.42151 11.4265 7.48259 12.1678 8.75165 12.656C9.70614 13.0232 10.7854 13.2502 11.9999 13.2502C13.2416 13.2502 14.342 13.013 15.3124 12.631C16.5738 12.1345 17.6277 11.3884 18.4866 10.5822C19.4562 9.67216 20.1668 8.69535 20.6354 7.9434C20.869 7.5685 21.0405 7.25246 21.1525 7.03286C21.2085 6.92315 21.2494 6.83776 21.2757 6.78144C21.2888 6.75328 21.2983 6.73242 21.3041 6.71943L21.31 6.70595L21.3106 6.70475C21.3105 6.70485 21.3106 6.70466 21.3106 6.70475M22.2954 6.31083C21.9147 6.14771 21.4738 6.32423 21.3106 6.70475L22.2954 6.31083ZM2.68888 6.70381C2.68882 6.70368 2.68894 6.70394 2.68888 6.70381V6.70381Z"/>
    </symbol>

    <symbol viewBox="0 0 24 24" id="eye-open">
        <path d="M12 8.25C9.92893 8.25 8.25 9.92893 8.25 12C8.25 14.0711 9.92893 15.75 12 15.75C14.0711 15.75 15.75 14.0711 15.75 12C15.75 9.92893 14.0711 8.25 12 8.25ZM9.75 12C9.75 10.7574 10.7574 9.75 12 9.75C13.2426 9.75 14.25 10.7574 14.25 12C14.25 13.2426 13.2426 14.25 12 14.25C10.7574 14.25 9.75 13.2426 9.75 12Z"/>
        <path d="M12 3.25C7.48587 3.25 4.44529 5.9542 2.68057 8.24686L2.64874 8.2882C2.24964 8.80653 1.88206 9.28392 1.63269 9.8484C1.36564 10.4529 1.25 11.1117 1.25 12C1.25 12.8883 1.36564 13.5471 1.63269 14.1516C1.88206 14.7161 2.24964 15.1935 2.64875 15.7118L2.68057 15.7531C4.44529 18.0458 7.48587 20.75 12 20.75C16.5141 20.75 19.5547 18.0458 21.3194 15.7531L21.3512 15.7118C21.7504 15.1935 22.1179 14.7161 22.3673 14.1516C22.6344 13.5471 22.75 12.8883 22.75 12C22.75 11.1117 22.6344 10.4529 22.3673 9.8484C22.1179 9.28391 21.7504 8.80652 21.3512 8.28818L21.3194 8.24686C19.5547 5.9542 16.5141 3.25 12 3.25ZM3.86922 9.1618C5.49864 7.04492 8.15036 4.75 12 4.75C15.8496 4.75 18.5014 7.04492 20.1308 9.1618C20.5694 9.73159 20.8263 10.0721 20.9952 10.4545C21.1532 10.812 21.25 11.2489 21.25 12C21.25 12.7511 21.1532 13.188 20.9952 13.5455C20.8263 13.9279 20.5694 14.2684 20.1308 14.8382C18.5014 16.9551 15.8496 19.25 12 19.25C8.15036 19.25 5.49864 16.9551 3.86922 14.8382C3.43064 14.2684 3.17374 13.9279 3.00476 13.5455C2.84684 13.188 2.75 12.7511 2.75 12C2.75 11.2489 2.84684 10.812 3.00476 10.4545C3.17374 10.0721 3.43063 9.73159 3.86922 9.1618Z"/>
    </symbol>


    <symbol id='instagram' viewBox="0 0 24 24">
        <path d="M2 6C2 3.79086 3.79086 2 6 2H18C20.2091 2 22 3.79086 22 6V18C22 20.2091 20.2091 22 18 22H6C3.79086 22 2 20.2091 2 18V6ZM6 4C4.89543 4 4 4.89543 4 6V18C4 19.1046 4.89543 20 6 20H18C19.1046 20 20 19.1046 20 18V6C20 4.89543 19.1046 4 18 4H6ZM12 9C10.3431 9 9 10.3431 9 12C9 13.6569 10.3431 15 12 15C13.6569 15 15 13.6569 15 12C15 10.3431 13.6569 9 12 9ZM7 12C7 9.23858 9.23858 7 12 7C14.7614 7 17 9.23858 17 12C17 14.7614 14.7614 17 12 17C9.23858 17 7 14.7614 7 12ZM17.5 8C18.3284 8 19 7.32843 19 6.5C19 5.67157 18.3284 5 17.5 5C16.6716 5 16 5.67157 16 6.5C16 7.32843 16.6716 8 17.5 8Z"/>
    </symbol>

    <symbol id="telegram" viewBox="0 0 24 24">
        <path d="M23.1117 4.49449C23.4296 2.94472 21.9074 1.65683 20.4317 2.227L2.3425 9.21601C0.694517 9.85273 0.621087 12.1572 2.22518 12.8975L6.1645 14.7157L8.03849 21.2746C8.13583 21.6153 8.40618 21.8791 8.74917 21.968C9.09216 22.0568 9.45658 21.9576 9.70712 21.707L12.5938 18.8203L16.6375 21.8531C17.8113 22.7334 19.5019 22.0922 19.7967 20.6549L23.1117 4.49449ZM3.0633 11.0816L21.1525 4.0926L17.8375 20.2531L13.1 16.6999C12.7019 16.4013 12.1448 16.4409 11.7929 16.7928L10.5565 18.0292L10.928 15.9861L18.2071 8.70703C18.5614 8.35278 18.5988 7.79106 18.2947 7.39293C17.9906 6.99479 17.4389 6.88312 17.0039 7.13168L6.95124 12.876L3.0633 11.0816ZM8.17695 14.4791L8.78333 16.6015L9.01614 15.321C9.05253 15.1209 9.14908 14.9366 9.29291 14.7928L11.5128 12.573L8.17695 14.4791Z"/>
    </symbol>

    <symbol id="user-button" viewBox="0 0 48 48">
        <path d="M6.3,42.5H40.4"/>
        <path d="M6.4,40.5l7-.2L12.9,5.6,6.6,5.5Z"/>
        <path d="M15,13.5l-.3,26.3,6.5-.2L22,13.7Z"/>
        <path d="M24,7.9,22.6,40.1l8.7-.1L33,8.4Z"/>
        <path d="M34,14.2,32.5,40.5l7.8.1,1.4-26.3Z"/>
        <path d="M35,14.2a8.51,8.51,0,0,1,5.7-3.7"/>
        <path d="M12.9,5.6,14.8,9l.1,4.6"/>
        <path d="M13.4,40.3l1.3-.5"/>
    </symbol>


    <symbol id="arrow-right" viewBox="0 0 24 24">
        <path d="M9.71069 18.2929C10.1012 18.6834 10.7344 18.6834 11.1249 18.2929L16.0123 13.4006C16.7927 12.6195 16.7924 11.3537 16.0117 10.5729L11.1213 5.68254C10.7308 5.29202 10.0976 5.29202 9.70708 5.68254C9.31655 6.07307 9.31655 6.70623 9.70708 7.09676L13.8927 11.2824C14.2833 11.6729 14.2833 12.3061 13.8927 12.6966L9.71069 16.8787C9.32016 17.2692 9.32016 17.9023 9.71069 18.2929Z"/>
    </symbol>


    <symbol id="arrow-left" viewBox="0 0 24 24">
        <path d="M14.2893 5.70708C13.8988 5.31655 13.2657 5.31655 12.8751 5.70708L7.98768 10.5993C7.20729 11.3805 7.2076 12.6463 7.98837 13.427L12.8787 18.3174C13.2693 18.7079 13.9024 18.7079 14.293 18.3174C14.6835 17.9269 14.6835 17.2937 14.293 16.9032L10.1073 12.7175C9.71678 12.327 9.71678 11.6939 10.1073 11.3033L14.2893 7.12129C14.6799 6.73077 14.6799 6.0976 14.2893 5.70708Z"/>
    </symbol>


    <symbol id='one' viewBox="-1 0 19 19">
        <path d="M10.594 1.975a8 8 0 0 1 1.895.795 7.857 7.857 0 0 1 1.604 1.237 8.05 8.05 0 0 1 1.241 1.6 7.909 7.909 0 0 1 0 7.991 8.021 8.021 0 0 1-2.845 2.845 7.888 7.888 0 0 1-4.007 1.082 7.825 7.825 0 0 1-3.985-1.082 8.039 8.039 0 0 1-1.599-1.241 7.848 7.848 0 0 1-1.237-1.604 8 8 0 0 1-.795-1.895 7.86 7.86 0 0 1-.283-2.112 7.782 7.782 0 0 1 .283-2.098 7.902 7.902 0 0 1 5.518-5.518 7.764 7.764 0 0 1 2.098-.283 7.848 7.848 0 0 1 2.112.283zM6.682 3.043A6.793 6.793 0 0 0 1.933 7.79a6.688 6.688 0 0 0-.241 1.8 6.764 6.764 0 0 0 .242 1.815 6.915 6.915 0 0 0 .685 1.634 6.775 6.775 0 0 0 1.063 1.378 6.975 6.975 0 0 0 1.38 1.071 6.822 6.822 0 0 0 5.235.686 6.789 6.789 0 0 0 3.012-1.757 6.925 6.925 0 0 0 1.07-1.382 6.785 6.785 0 0 0 .93-3.445 6.722 6.722 0 0 0-.929-3.42 6.967 6.967 0 0 0-1.07-1.38 6.77 6.77 0 0 0-1.38-1.063 6.936 6.936 0 0 0-1.633-.685A6.775 6.775 0 0 0 8.482 2.8a6.695 6.695 0 0 0-1.8.243zm2.84 10.095V6.58H8.106L5.948 8.164l.806 1.103 1.222-.945v4.816z"/>
    </symbol>


    <symbol id="two" viewBox="-1 0 19 19">
        <path d="M10.594 1.975a8 8 0 0 1 1.895.795 7.857 7.857 0 0 1 1.604 1.237 8.05 8.05 0 0 1 1.241 1.6 7.909 7.909 0 0 1 0 7.991 8.021 8.021 0 0 1-2.845 2.845 7.888 7.888 0 0 1-4.007 1.082 7.825 7.825 0 0 1-3.985-1.082 8.039 8.039 0 0 1-1.599-1.241 7.848 7.848 0 0 1-1.237-1.604 8 8 0 0 1-.795-1.895 7.86 7.86 0 0 1-.283-2.112 7.782 7.782 0 0 1 .283-2.098 7.902 7.902 0 0 1 5.518-5.518 7.764 7.764 0 0 1 2.098-.283 7.848 7.848 0 0 1 2.112.283zM6.682 3.043A6.793 6.793 0 0 0 1.933 7.79a6.688 6.688 0 0 0-.241 1.8 6.764 6.764 0 0 0 .242 1.815 6.916 6.916 0 0 0 .685 1.634 6.775 6.775 0 0 0 1.063 1.378 6.975 6.975 0 0 0 1.38 1.071 6.822 6.822 0 0 0 5.235.686 6.789 6.789 0 0 0 3.012-1.757 6.924 6.924 0 0 0 1.07-1.382 6.785 6.785 0 0 0 .93-3.445 6.722 6.722 0 0 0-.929-3.42 6.967 6.967 0 0 0-1.07-1.38 6.77 6.77 0 0 0-1.38-1.063 6.937 6.937 0 0 0-1.633-.685A6.775 6.775 0 0 0 8.482 2.8a6.695 6.695 0 0 0-1.8.243zm4.176 10.095v-1.352H8.18l1.52-1.353q.222-.203.43-.412a2.996 2.996 0 0 0 .371-.449 2.115 2.115 0 0 0 .255-.523 2.028 2.028 0 0 0 .092-.635 1.89 1.89 0 0 0-.199-.889 1.853 1.853 0 0 0-.532-.63 2.296 2.296 0 0 0-.76-.37 3.23 3.23 0 0 0-.88-.12 2.854 2.854 0 0 0-.912.144 2.376 2.376 0 0 0-.764.42 2.315 2.315 0 0 0-.551.666 2.346 2.346 0 0 0-.273.89l1.491.204a1.232 1.232 0 0 1 .292-.717.893.893 0 0 1 1.227-.057.76.76 0 0 1 .222.57 1 1 0 0 1-.148.535 2.418 2.418 0 0 1-.389.472l-2.556 2.311v1.295z"/>
    </symbol>


    <symbol id="three" viewBox="-1 0 19 19">
        <path d="M10.598 1.958a7.948 7.948 0 0 1 5.536 5.535 7.956 7.956 0 0 1 0 4.206 7.863 7.863 0 0 1-2.04 3.49 8.081 8.081 0 0 1-1.605 1.237 7.914 7.914 0 0 1-1.89.8 7.965 7.965 0 0 1-4.207 0 7.934 7.934 0 0 1-5.526-5.527 7.99 7.99 0 0 1 0-4.21 7.94 7.94 0 0 1 .8-1.887A8.05 8.05 0 0 1 2.902 4 7.86 7.86 0 0 1 8.5 1.675a7.77 7.77 0 0 1 2.098.283zM6.691 3.025A6.753 6.753 0 0 0 3.688 4.78a6.987 6.987 0 0 0-1.067 1.384 6.847 6.847 0 0 0-.688 1.624 6.872 6.872 0 0 0 0 3.613 6.811 6.811 0 0 0 .688 1.627 6.824 6.824 0 0 0 4.07 3.13 6.857 6.857 0 0 0 3.609 0 6.855 6.855 0 0 0 1.628-.688 7.011 7.011 0 0 0 1.384-1.067 6.754 6.754 0 0 0 1.754-3.002 6.847 6.847 0 0 0 0-3.61 6.834 6.834 0 0 0-.687-1.627 6.92 6.92 0 0 0-2.452-2.452 6.84 6.84 0 0 0-1.627-.687 6.847 6.847 0 0 0-3.61 0zm4.19 7.668a1.529 1.529 0 0 0-.26-.444 1.647 1.647 0 0 0-.398-.342 1.69 1.69 0 0 0-.509-.208V9.67a1.51 1.51 0 0 0 .792-.505 1.402 1.402 0 0 0 .31-.923 1.626 1.626 0 0 0-.199-.821 1.814 1.814 0 0 0-.523-.58 2.282 2.282 0 0 0-.736-.344 3.251 3.251 0 0 0-.848-.11 3.01 3.01 0 0 0-.797.106 2.625 2.625 0 0 0-.717.315 2.222 2.222 0 0 0-.57.518 2.142 2.142 0 0 0-.361.728l1.445.333a.92.92 0 0 1 .32-.533.891.891 0 0 1 .578-.199.936.936 0 0 1 .574.187.633.633 0 0 1 .25.54.654.654 0 0 1-.356.63 1.128 1.128 0 0 1-.366.12 2.706 2.706 0 0 1-.426.033H7.63v1.13h.417a2.816 2.816 0 0 1 .481.042 1.488 1.488 0 0 1 .43.138.821.821 0 0 1 .307.264.714.714 0 0 1 .115.417.789.789 0 0 1-.087.389.776.776 0 0 1-.223.255.93.93 0 0 1-.305.143 1.292 1.292 0 0 1-.339.047 1.085 1.085 0 0 1-.731-.246 1.163 1.163 0 0 1-.38-.57l-1.445.38a2.186 2.186 0 0 0 .996 1.33 2.723 2.723 0 0 0 .769.31 3.665 3.665 0 0 0 .866.101 3.26 3.26 0 0 0 .893-.124 2.506 2.506 0 0 0 .792-.38 1.958 1.958 0 0 0 .57-.647 1.89 1.89 0 0 0 .218-.93 1.462 1.462 0 0 0-.093-.522z"/>
    </symbol>


    <symbol id="four" viewBox="-1 0 19 19">
        <path d="M10.59 1.966a7.95 7.95 0 0 1 5.544 5.532 7.906 7.906 0 0 1 0 4.192 7.91 7.91 0 0 1-2.04 3.494 8.06 8.06 0 0 1-1.61 1.246 7.882 7.882 0 0 1-1.895.804 7.82 7.82 0 0 1-6.079-.804 8.115 8.115 0 0 1-1.603-1.246A7.914 7.914 0 0 1 .866 11.69a7.923 7.923 0 0 1 0-4.193 7.96 7.96 0 0 1 5.53-5.53 7.907 7.907 0 0 1 4.193 0zM6.695 3.034a6.849 6.849 0 0 0-1.624.687A6.919 6.919 0 0 0 2.62 6.173a6.847 6.847 0 0 0-.688 1.624 6.806 6.806 0 0 0 0 3.595 6.811 6.811 0 0 0 .688 1.627A6.918 6.918 0 0 0 3.69 14.4a7.052 7.052 0 0 0 1.385 1.076 6.763 6.763 0 0 0 1.62.69 6.81 6.81 0 0 0 3.595 0 6.828 6.828 0 0 0 1.631-.692 6.998 6.998 0 0 0 1.387-1.074 6.916 6.916 0 0 0 1.07-1.382 6.816 6.816 0 0 0 .687-1.627 6.802 6.802 0 0 0 0-3.595 6.846 6.846 0 0 0-4.775-4.763 6.798 6.798 0 0 0-3.595 0zm4.33 8.817v-1.26h-.908V6.572h-1.86l-2.668 3.973v1.306h3.084v1.278h1.455v-1.278zm-2.344-1.26H7.1l1.556-2.426h.027z"/>
    </symbol>

    <symbol id="logo" viewBox="0 0 276 60">
        <path d="M40.7402 18.0547V19.3731H16.8145V18.0547H40.7402ZM17.4736 1.45313V37H16.1553V1.45313H17.4736ZM41.4971 1.45313V37H40.1787V1.45313H41.4971Z"/>
        <path d="M61.9072 2.57618L49.0654 37H47.625L60.9307 1.45313H62.2002L61.9072 2.57618ZM74.4072 37L61.5654 2.57618L61.2969 1.45313H62.542L75.8477 37H74.4072ZM70.6475 25.0615V26.3799H52.8496V25.0615H70.6475Z"/>
        <path d="M107.195 1.45313V37H105.877L82.9277 3.69922V37H81.585V1.45313H82.9277L105.877 34.6807V1.45313H107.195Z"/>
        <path d="M142.596 1.45313V37H141.277L118.328 3.69922V37H116.985V1.45313H118.328L141.277 34.6807V1.45313H142.596Z"/>
        <path d="M163.03 2.57618L150.188 37H148.748L162.054 1.45313H163.323L163.03 2.57618ZM175.53 37L162.688 2.57618L162.42 1.45313H163.665L176.971 37H175.53ZM171.771 25.0615V26.3799H153.973V25.0615H171.771Z"/>
        <path d="M181.412 37V0.636368H187.999V31.478H204.015V37H181.412Z"/>
        <path d="M216.32 0.636368V37H209.732V0.636368H216.32Z"/>
        <path d="M223.453 37V0.636368H237.373C240.001 0.636368 242.185 1.05067 243.925 1.87926C245.677 2.69603 246.985 3.81464 247.849 5.23509C248.725 6.65554 249.163 8.26539 249.163 10.0646C249.163 11.5443 248.879 12.8108 248.311 13.8644C247.743 14.906 246.979 15.7524 246.02 16.4034C245.062 17.0545 243.99 17.522 242.807 17.8061V18.1612C244.097 18.2322 245.334 18.6288 246.517 19.3509C247.713 20.0611 248.69 21.0672 249.447 22.3693C250.205 23.6714 250.584 25.2457 250.584 27.0923C250.584 28.9744 250.128 30.6671 249.216 32.1705C248.305 33.6619 246.932 34.8397 245.097 35.7038C243.262 36.568 240.954 37 238.172 37H223.453ZM230.04 31.4957H237.125C239.516 31.4957 241.238 31.04 242.292 30.1286C243.357 29.2053 243.89 28.0215 243.89 26.5774C243.89 25.5002 243.623 24.5296 243.091 23.6655C242.558 22.7895 241.8 22.103 240.818 21.6058C239.835 21.0968 238.664 20.8423 237.302 20.8423H230.04V31.4957ZM230.04 16.1016H236.557C237.693 16.1016 238.717 15.8944 239.628 15.4801C240.54 15.054 241.256 14.4562 241.777 13.6868C242.309 12.9055 242.576 11.9822 242.576 10.9169C242.576 9.50829 242.079 8.34825 241.084 7.43679C240.102 6.52533 238.64 6.06961 236.699 6.06961H230.04V16.1016Z"/>
        <path d="M6.53622 47.2727V56H5.84872V47.2727H6.53622ZM6.30895 51.7443V52.4261C5.9188 52.5587 5.56274 52.6686 5.24077 52.7557C4.92259 52.8428 4.61577 52.9072 4.32031 52.9489C4.02486 52.9867 3.71993 53.0057 3.40554 53.0057C2.43584 53.0019 1.68963 52.7689 1.1669 52.3068C0.644176 51.8409 0.382812 51.1174 0.382812 50.1364V47.233H1.07599V50.1364C1.07599 50.6591 1.16501 51.0833 1.34304 51.4091C1.52107 51.7311 1.78243 51.9678 2.12713 52.1193C2.47183 52.2708 2.89039 52.3466 3.38281 52.3466C3.88281 52.3466 4.36955 52.2936 4.84304 52.1875C5.32031 52.0777 5.80895 51.9299 6.30895 51.7443Z"/>
        <path d="M11.7578 56.1875C11.254 56.1875 10.7919 56.0871 10.3714 55.8864C9.95478 55.6856 9.61956 55.3921 9.36577 55.0057C9.11577 54.6193 8.99077 54.1496 8.99077 53.5966C8.99077 53.233 9.05516 52.9129 9.18395 52.6364C9.31274 52.3599 9.5116 52.1212 9.78054 51.9205C10.0495 51.7197 10.3942 51.5549 10.8146 51.4261C11.2351 51.2936 11.737 51.1913 12.3203 51.1193C12.7635 51.0663 13.1593 51.0152 13.5078 50.9659C13.8563 50.9129 14.129 50.8314 14.326 50.7216C14.5268 50.6117 14.6271 50.4451 14.6271 50.2216V49.858C14.6271 49.2216 14.4264 48.7159 14.0249 48.3409C13.6233 47.9659 13.0703 47.7784 12.3658 47.7784C11.7408 47.7784 11.2143 47.9167 10.7862 48.1932C10.362 48.4659 10.0646 48.8182 9.89418 49.25L9.24077 49.0057C9.40743 48.589 9.64796 48.2424 9.96236 47.9659C10.2805 47.6894 10.6442 47.483 11.0533 47.3466C11.4661 47.2102 11.898 47.1421 12.3487 47.1421C12.7389 47.1421 13.1101 47.197 13.4624 47.3068C13.8184 47.4167 14.1347 47.5833 14.4112 47.8068C14.6915 48.0303 14.9131 48.3163 15.076 48.6648C15.2389 49.0095 15.3203 49.4224 15.3203 49.9034V56H14.6271V54.4261H14.576C14.4245 54.7519 14.2161 55.0492 13.951 55.3182C13.6896 55.5833 13.3733 55.7955 13.0021 55.9546C12.6347 56.1099 12.2199 56.1875 11.7578 56.1875ZM11.826 55.5455C12.3714 55.5455 12.8544 55.4129 13.2749 55.1477C13.6991 54.8788 14.0305 54.5114 14.2692 54.0455C14.5078 53.5796 14.6271 53.0511 14.6271 52.4602V51.1761C14.54 51.2519 14.4131 51.3201 14.2464 51.3807C14.0836 51.4375 13.898 51.4886 13.6896 51.5341C13.4851 51.5758 13.2692 51.6136 13.0419 51.6477C12.8184 51.678 12.6006 51.7064 12.3885 51.733C11.7521 51.8087 11.2332 51.9261 10.8317 52.0852C10.4339 52.2405 10.1423 52.4451 9.95668 52.6989C9.77486 52.9527 9.68395 53.2595 9.68395 53.6193C9.68395 54.214 9.88849 54.6837 10.2976 55.0284C10.7067 55.3731 11.2161 55.5455 11.826 55.5455Z"/>
        <path d="M21.4993 56.1818C20.7569 56.1818 20.1035 55.9867 19.5391 55.5966C18.9747 55.2027 18.5334 54.6648 18.2152 53.983C17.9008 53.3011 17.7436 52.5284 17.7436 51.6648C17.7436 50.8011 17.9027 50.0284 18.2209 49.3466C18.5391 48.6648 18.9804 48.1269 19.5447 47.733C20.1091 47.339 20.7588 47.1421 21.4936 47.1421C22.0466 47.1421 22.5504 47.2557 23.005 47.483C23.4633 47.7102 23.8421 48.0265 24.1413 48.4318C24.4444 48.8371 24.6375 49.3068 24.7209 49.8409H24.0163C23.9027 49.25 23.6186 48.7614 23.1641 48.375C22.7133 47.9849 22.1584 47.7898 21.4993 47.7898C20.9084 47.7898 20.3819 47.9564 19.9197 48.2898C19.4576 48.6193 19.094 49.0758 18.8288 49.6591C18.5637 50.2386 18.4311 50.9034 18.4311 51.6534C18.4311 52.3921 18.5599 53.0549 18.8175 53.6421C19.075 54.2254 19.4349 54.6875 19.897 55.0284C20.3591 55.3693 20.8932 55.5398 21.4993 55.5398C21.9273 55.5398 22.3175 55.4546 22.6697 55.2841C23.0258 55.1136 23.3232 54.8712 23.5618 54.5568C23.8004 54.2424 23.9576 53.875 24.0334 53.4546H24.7379C24.6546 53.9924 24.4652 54.4659 24.1697 54.875C23.8743 55.2841 23.4974 55.6042 23.0391 55.8352C22.5807 56.0663 22.0675 56.1818 21.4993 56.1818Z"/>
        <path d="M26.3572 47.9318V47.2727H32.9027V47.9318H29.9936V56H29.3004V47.9318H26.3572Z"/>
        <path d="M41.1598 51.3125V51.9716H35.7109V51.3125H41.1598ZM35.9041 47.2727V56H35.2109V47.2727H35.9041ZM41.6314 47.2727V56H40.9382V47.2727H41.6314Z"/>
        <path d="M46.8516 56.1875C46.3478 56.1875 45.8857 56.0871 45.4652 55.8864C45.0485 55.6856 44.7133 55.3921 44.4595 55.0057C44.2095 54.6193 44.0845 54.1496 44.0845 53.5966C44.0845 53.233 44.1489 52.9129 44.2777 52.6364C44.4065 52.3599 44.6054 52.1212 44.8743 51.9205C45.1432 51.7197 45.4879 51.5549 45.9084 51.4261C46.3288 51.2936 46.8307 51.1913 47.4141 51.1193C47.8572 51.0663 48.2531 51.0152 48.6016 50.9659C48.95 50.9129 49.2228 50.8314 49.4197 50.7216C49.6205 50.6117 49.7209 50.4451 49.7209 50.2216V49.858C49.7209 49.2216 49.5201 48.7159 49.1186 48.3409C48.7171 47.9659 48.1641 47.7784 47.4595 47.7784C46.8345 47.7784 46.308 47.9167 45.88 48.1932C45.4557 48.4659 45.1584 48.8182 44.9879 49.25L44.3345 49.0057C44.5012 48.589 44.7417 48.2424 45.0561 47.9659C45.3743 47.6894 45.7379 47.483 46.147 47.3466C46.5599 47.2102 46.9917 47.1421 47.4425 47.1421C47.8326 47.1421 48.2038 47.197 48.5561 47.3068C48.9122 47.4167 49.2285 47.5833 49.505 47.8068C49.7853 48.0303 50.0069 48.3163 50.1697 48.6648C50.3326 49.0095 50.4141 49.4224 50.4141 49.9034V56H49.7209V54.4261H49.6697C49.5182 54.7519 49.3099 55.0492 49.0447 55.3182C48.7834 55.5833 48.4671 55.7955 48.0959 55.9546C47.7285 56.1099 47.3137 56.1875 46.8516 56.1875ZM46.9197 55.5455C47.4652 55.5455 47.9482 55.4129 48.3686 55.1477C48.7928 54.8788 49.1243 54.5114 49.3629 54.0455C49.6016 53.5796 49.7209 53.0511 49.7209 52.4602V51.1761C49.6338 51.2519 49.5069 51.3201 49.3402 51.3807C49.1773 51.4375 48.9917 51.4886 48.7834 51.5341C48.5788 51.5758 48.3629 51.6136 48.1357 51.6477C47.9122 51.678 47.6944 51.7064 47.4822 51.733C46.8459 51.8087 46.3269 51.9261 45.9254 52.0852C45.5277 52.2405 45.236 52.4451 45.0504 52.6989C44.8686 52.9527 44.7777 53.2595 44.7777 53.6193C44.7777 54.214 44.9822 54.6837 45.3913 55.0284C45.8004 55.3731 46.3099 55.5455 46.9197 55.5455Z"/>
        <path d="M58.5703 56V47.9148L56.0874 47.9261C55.3563 47.9261 54.8165 48.0625 54.468 48.3352C54.1233 48.608 53.951 49.0474 53.951 49.6534C53.951 50.2519 54.1214 50.6875 54.4624 50.9602C54.8033 51.233 55.3279 51.3693 56.0362 51.3693H58.8089V52.0284H56.0362C55.4188 52.0284 54.9036 51.9413 54.4908 51.7671C54.0817 51.589 53.7749 51.3239 53.5703 50.9716C53.3658 50.6193 53.2635 50.1799 53.2635 49.6534C53.2635 49.1231 53.3677 48.6818 53.576 48.3296C53.7843 47.9773 54.0968 47.714 54.5135 47.5398C54.934 47.3617 55.4586 47.2727 56.0874 47.2727H59.2408V56H58.5703ZM52.6328 56L55.1783 51.6591H55.9453L53.3999 56H52.6328Z"/>
        <path d="M66.9098 47.2727L69.3189 51.1534L71.728 47.2727H72.5291L69.7337 51.6364L72.5291 56H71.728L69.3189 52.1818L66.9098 56H66.103L68.8871 51.6364L66.103 47.2727H66.9098Z"/>
        <path d="M74.8516 59.2727V47.2727H75.5277V49.2216H75.6129C75.7493 48.8466 75.9406 48.5019 76.1868 48.1875C76.4368 47.8731 76.7455 47.6212 77.1129 47.4318C77.4841 47.2386 77.9197 47.1421 78.4197 47.1421C79.1243 47.1421 79.7379 47.3352 80.2607 47.7216C80.7834 48.108 81.1887 48.642 81.4766 49.3239C81.7644 50.0019 81.9084 50.7803 81.9084 51.6591C81.9084 52.5379 81.7625 53.3182 81.4709 54C81.183 54.678 80.7777 55.2121 80.255 55.6023C79.736 55.9886 79.1281 56.1818 78.4311 56.1818C77.9349 56.1818 77.4993 56.0871 77.1243 55.8977C76.7531 55.7083 76.4406 55.4564 76.1868 55.1421C75.9368 54.8239 75.7455 54.4754 75.6129 54.0966H75.5447V59.2727H74.8516ZM75.5334 51.6534C75.5334 52.3958 75.647 53.0606 75.8743 53.6477C76.1016 54.2311 76.4273 54.6932 76.8516 55.0341C77.2758 55.3712 77.7815 55.5398 78.3686 55.5398C78.9633 55.5398 79.4728 55.3693 79.897 55.0284C80.325 54.6837 80.6508 54.2178 80.8743 53.6307C81.1016 53.0436 81.2152 52.3845 81.2152 51.6534C81.2152 50.9224 81.1035 50.2652 80.88 49.6818C80.6565 49.0985 80.3326 48.6383 79.9084 48.3011C79.4841 47.9602 78.9709 47.7898 78.3686 47.7898C77.7739 47.7898 77.2644 47.9583 76.8402 48.2955C76.4197 48.6288 76.0959 49.0871 75.8686 49.6705C75.6451 50.25 75.5334 50.911 75.5334 51.6534Z"/>
        <path d="M84.9979 55.0966L90.0036 47.2727H90.8842V56H90.1911V48.1761L85.191 56H84.3047V47.2727H84.9979V55.0966Z"/>
        <path d="M97.0305 56.1818C96.2881 56.1818 95.6347 55.9867 95.0703 55.5966C94.5059 55.2027 94.0646 54.6648 93.7465 53.983C93.4321 53.3011 93.2749 52.5284 93.2749 51.6648C93.2749 50.8011 93.4339 50.0284 93.7521 49.3466C94.0703 48.6648 94.5116 48.1269 95.076 47.733C95.6404 47.339 96.29 47.1421 97.0249 47.1421C97.5779 47.1421 98.0817 47.2557 98.5362 47.483C98.9946 47.7102 99.3733 48.0265 99.6726 48.4318C99.9756 48.8371 100.169 49.3068 100.252 49.8409H99.5476C99.4339 49.25 99.1499 48.7614 98.6953 48.375C98.2446 47.9849 97.6896 47.7898 97.0305 47.7898C96.4396 47.7898 95.9131 47.9564 95.451 48.2898C94.9889 48.6193 94.6252 49.0758 94.3601 49.6591C94.0949 50.2386 93.9624 50.9034 93.9624 51.6534C93.9624 52.3921 94.0911 53.0549 94.3487 53.6421C94.6063 54.2254 94.9661 54.6875 95.4283 55.0284C95.8904 55.3693 96.4245 55.5398 97.0305 55.5398C97.4586 55.5398 97.8487 55.4546 98.201 55.2841C98.5571 55.1136 98.8544 54.8712 99.093 54.5568C99.3317 54.2424 99.4889 53.875 99.5646 53.4546H100.269C100.186 53.9924 99.9965 54.4659 99.701 54.875C99.4055 55.2841 99.0286 55.6042 98.5703 55.8352C98.112 56.0663 97.5987 56.1818 97.0305 56.1818Z"/>
        <path d="M101.888 47.9318V47.2727H108.434V47.9318H105.525V56H104.832V47.9318H101.888Z"/>
        <path d="M111.435 55.0966L116.441 47.2727H117.322V56H116.629V48.1761L111.629 56H110.742V47.2727H111.435V55.0966Z"/>
        <path d="M122.508 56.1875C122.004 56.1875 121.542 56.0871 121.121 55.8864C120.705 55.6856 120.37 55.3921 120.116 55.0057C119.866 54.6193 119.741 54.1496 119.741 53.5966C119.741 53.233 119.805 52.9129 119.934 52.6364C120.063 52.3599 120.262 52.1212 120.531 51.9205C120.799 51.7197 121.144 51.5549 121.565 51.4261C121.985 51.2936 122.487 51.1913 123.07 51.1193C123.513 51.0663 123.909 51.0152 124.258 50.9659C124.606 50.9129 124.879 50.8314 125.076 50.7216C125.277 50.6117 125.377 50.4451 125.377 50.2216V49.858C125.377 49.2216 125.176 48.7159 124.775 48.3409C124.373 47.9659 123.82 47.7784 123.116 47.7784C122.491 47.7784 121.964 47.9167 121.536 48.1932C121.112 48.4659 120.815 48.8182 120.644 49.25L119.991 49.0057C120.157 48.589 120.398 48.2424 120.712 47.9659C121.031 47.6894 121.394 47.483 121.803 47.3466C122.216 47.2102 122.648 47.1421 123.099 47.1421C123.489 47.1421 123.86 47.197 124.212 47.3068C124.568 47.4167 124.885 47.5833 125.161 47.8068C125.442 48.0303 125.663 48.3163 125.826 48.6648C125.989 49.0095 126.07 49.4224 126.07 49.9034V56H125.377V54.4261H125.326C125.174 54.7519 124.966 55.0492 124.701 55.3182C124.44 55.5833 124.123 55.7955 123.752 55.9546C123.385 56.1099 122.97 56.1875 122.508 56.1875ZM122.576 55.5455C123.121 55.5455 123.604 55.4129 124.025 55.1477C124.449 54.8788 124.781 54.5114 125.019 54.0455C125.258 53.5796 125.377 53.0511 125.377 52.4602V51.1761C125.29 51.2519 125.163 51.3201 124.996 51.3807C124.834 51.4375 124.648 51.4886 124.44 51.5341C124.235 51.5758 124.019 51.6136 123.792 51.6477C123.568 51.678 123.351 51.7064 123.138 51.733C122.502 51.8087 121.983 51.9261 121.582 52.0852C121.184 52.2405 120.892 52.4451 120.707 52.6989C120.525 52.9527 120.434 53.2595 120.434 53.6193C120.434 54.214 120.638 54.6837 121.048 55.0284C121.457 55.3731 121.966 55.5455 122.576 55.5455Z"/>
        <path d="M134.925 51.3125V51.9716H129.477V51.3125H134.925ZM129.67 47.2727V56H128.977V47.2727H129.67ZM135.397 47.2727V56H134.704V47.2727H135.397Z"/>
        <path d="M141.577 56.1818C140.835 56.1818 140.182 55.9867 139.617 55.5966C139.053 55.2027 138.612 54.6648 138.293 53.983C137.979 53.3011 137.822 52.5284 137.822 51.6648C137.822 50.8011 137.981 50.0284 138.299 49.3466C138.617 48.6648 139.058 48.1269 139.623 47.733C140.187 47.339 140.837 47.1421 141.572 47.1421C142.125 47.1421 142.629 47.2557 143.083 47.483C143.541 47.7102 143.92 48.0265 144.219 48.4318C144.522 48.8371 144.716 49.3068 144.799 49.8409H144.094C143.981 49.25 143.697 48.7614 143.242 48.375C142.791 47.9849 142.236 47.7898 141.577 47.7898C140.986 47.7898 140.46 47.9564 139.998 48.2898C139.536 48.6193 139.172 49.0758 138.907 49.6591C138.642 50.2386 138.509 50.9034 138.509 51.6534C138.509 52.3921 138.638 53.0549 138.896 53.6421C139.153 54.2254 139.513 54.6875 139.975 55.0284C140.437 55.3693 140.971 55.5398 141.577 55.5398C142.005 55.5398 142.396 55.4546 142.748 55.2841C143.104 55.1136 143.401 54.8712 143.64 54.5568C143.879 54.2424 144.036 53.875 144.112 53.4546H144.816C144.733 53.9924 144.543 54.4659 144.248 54.875C143.952 55.2841 143.576 55.6042 143.117 55.8352C142.659 56.0663 142.146 56.1818 141.577 56.1818Z"/>
        <path d="M147.18 56V47.2727H147.873V51.3239H148.879L152.225 47.2727H153.123L149.646 51.4602L153.225 56H152.339L149.191 51.983H147.873V56H147.18Z"/>
        <path d="M157.414 56.1875C156.91 56.1875 156.448 56.0871 156.028 55.8864C155.611 55.6856 155.276 55.3921 155.022 55.0057C154.772 54.6193 154.647 54.1496 154.647 53.5966C154.647 53.233 154.711 52.9129 154.84 52.6364C154.969 52.3599 155.168 52.1212 155.437 51.9205C155.706 51.7197 156.05 51.5549 156.471 51.4261C156.891 51.2936 157.393 51.1913 157.977 51.1193C158.42 51.0663 158.816 51.0152 159.164 50.9659C159.513 50.9129 159.785 50.8314 159.982 50.7216C160.183 50.6117 160.283 50.4451 160.283 50.2216V49.858C160.283 49.2216 160.083 48.7159 159.681 48.3409C159.28 47.9659 158.727 47.7784 158.022 47.7784C157.397 47.7784 156.871 47.9167 156.442 48.1932C156.018 48.4659 155.721 48.8182 155.55 49.25L154.897 49.0057C155.064 48.589 155.304 48.2424 155.619 47.9659C155.937 47.6894 156.3 47.483 156.71 47.3466C157.122 47.2102 157.554 47.1421 158.005 47.1421C158.395 47.1421 158.766 47.197 159.119 47.3068C159.475 47.4167 159.791 47.5833 160.067 47.8068C160.348 48.0303 160.569 48.3163 160.732 48.6648C160.895 49.0095 160.977 49.4224 160.977 49.9034V56H160.283V54.4261H160.232C160.081 54.7519 159.872 55.0492 159.607 55.3182C159.346 55.5833 159.03 55.7955 158.658 55.9546C158.291 56.1099 157.876 56.1875 157.414 56.1875ZM157.482 55.5455C158.028 55.5455 158.511 55.4129 158.931 55.1477C159.355 54.8788 159.687 54.5114 159.925 54.0455C160.164 53.5796 160.283 53.0511 160.283 52.4602V51.1761C160.196 51.2519 160.069 51.3201 159.903 51.3807C159.74 51.4375 159.554 51.4886 159.346 51.5341C159.141 51.5758 158.925 51.6136 158.698 51.6477C158.475 51.678 158.257 51.7064 158.045 51.733C157.408 51.8087 156.889 51.9261 156.488 52.0852C156.09 52.2405 155.799 52.4451 155.613 52.6989C155.431 52.9527 155.34 53.2595 155.34 53.6193C155.34 54.214 155.545 54.6837 155.954 55.0284C156.363 55.3731 156.872 55.5455 157.482 55.5455Z"/>
        <path d="M169.133 56V47.9148L166.65 47.9261C165.919 47.9261 165.379 48.0625 165.031 48.3352C164.686 48.608 164.513 49.0474 164.513 49.6534C164.513 50.2519 164.684 50.6875 165.025 50.9602C165.366 51.233 165.89 51.3693 166.599 51.3693H169.371V52.0284H166.599C165.981 52.0284 165.466 51.9413 165.053 51.7671C164.644 51.589 164.337 51.3239 164.133 50.9716C163.928 50.6193 163.826 50.1799 163.826 49.6534C163.826 49.1231 163.93 48.6818 164.138 48.3296C164.347 47.9773 164.659 47.714 165.076 47.5398C165.496 47.3617 166.021 47.2727 166.65 47.2727H169.803V56H169.133ZM163.195 56L165.741 51.6591H166.508L163.962 56H163.195Z"/>
        <path d="M183.313 44L183.683 44.4602C183.467 44.6724 183.201 44.8106 182.887 44.875C182.576 44.9394 182.234 44.9735 181.859 44.9773C181.484 44.9811 181.097 44.9943 180.7 45.0171C179.95 45.0549 179.34 45.2557 178.87 45.6193C178.4 45.983 178.046 46.4981 177.808 47.1648C177.569 47.8314 177.427 48.6458 177.381 49.608H177.484C177.772 48.964 178.188 48.4602 178.734 48.0966C179.279 47.7292 179.891 47.5455 180.569 47.5455C181.224 47.5455 181.815 47.714 182.342 48.0511C182.872 48.3883 183.29 48.875 183.597 49.5114C183.908 50.1439 184.063 50.9072 184.063 51.8011C184.063 52.6837 183.91 53.4527 183.603 54.108C183.3 54.7633 182.874 55.2727 182.325 55.6364C181.775 56 181.135 56.1818 180.404 56.1818C179.654 56.1818 179.005 56.0095 178.455 55.6648C177.906 55.3201 177.48 54.8144 177.177 54.1477C176.878 53.4773 176.728 52.6553 176.728 51.6818V50.7784C176.728 48.6572 177.04 47.072 177.665 46.0227C178.294 44.9735 179.283 44.4205 180.631 44.3636C181.022 44.3447 181.383 44.339 181.717 44.3466C182.054 44.3542 182.357 44.3371 182.626 44.2955C182.895 44.2538 183.124 44.1553 183.313 44ZM180.404 55.5398C181.006 55.5398 181.529 55.3845 181.972 55.0739C182.419 54.7633 182.764 54.3295 183.006 53.7727C183.249 53.2121 183.37 52.5549 183.37 51.8011C183.37 51.0511 183.245 50.4072 182.995 49.8693C182.749 49.3277 182.406 48.9129 181.967 48.625C181.531 48.3333 181.029 48.1875 180.461 48.1875C179.987 48.1875 179.563 48.2879 179.188 48.4886C178.813 48.6894 178.495 48.964 178.234 49.3125C177.972 49.661 177.772 50.0587 177.631 50.5057C177.491 50.9527 177.419 51.4224 177.415 51.9148C177.415 53.0549 177.681 53.9451 178.211 54.5852C178.745 55.2216 179.476 55.5398 180.404 55.5398Z"/>
        <path d="M187.154 55.0966L192.16 47.2727H193.04V56H192.347V48.1761L187.347 56H186.461V47.2727H187.154V55.0966Z"/>
        <path d="M202.016 44L202.386 44.4602C202.17 44.6724 201.905 44.8106 201.59 44.875C201.28 44.9394 200.937 44.9735 200.562 44.9773C200.187 44.9811 199.8 44.9943 199.403 45.0171C198.653 45.0549 198.043 45.2557 197.573 45.6193C197.103 45.983 196.749 46.4981 196.511 47.1648C196.272 47.8314 196.13 48.6458 196.085 49.608H196.187C196.475 48.964 196.891 48.4602 197.437 48.0966C197.982 47.7292 198.594 47.5455 199.272 47.5455C199.927 47.5455 200.518 47.714 201.045 48.0511C201.575 48.3883 201.994 48.875 202.3 49.5114C202.611 50.1439 202.766 50.9072 202.766 51.8011C202.766 52.6837 202.613 53.4527 202.306 54.108C202.003 54.7633 201.577 55.2727 201.028 55.6364C200.478 56 199.838 56.1818 199.107 56.1818C198.357 56.1818 197.708 56.0095 197.158 55.6648C196.609 55.3201 196.183 54.8144 195.88 54.1477C195.581 53.4773 195.431 52.6553 195.431 51.6818V50.7784C195.431 48.6572 195.744 47.072 196.369 46.0227C196.997 44.9735 197.986 44.4205 199.335 44.3636C199.725 44.3447 200.086 44.339 200.42 44.3466C200.757 44.3542 201.06 44.3371 201.329 44.2955C201.598 44.2538 201.827 44.1553 202.016 44ZM199.107 55.5398C199.71 55.5398 200.232 55.3845 200.675 55.0739C201.122 54.7633 201.467 54.3295 201.71 53.7727C201.952 53.2121 202.073 52.5549 202.073 51.8011C202.073 51.0511 201.948 50.4072 201.698 49.8693C201.452 49.3277 201.109 48.9129 200.67 48.625C200.234 48.3333 199.732 48.1875 199.164 48.1875C198.691 48.1875 198.266 48.2879 197.891 48.4886C197.516 48.6894 197.198 48.964 196.937 49.3125C196.675 49.661 196.475 50.0587 196.335 50.5057C196.194 50.9527 196.122 51.4224 196.119 51.9148C196.119 53.0549 196.384 53.9451 196.914 54.5852C197.448 55.2216 198.179 55.5398 199.107 55.5398Z"/>
        <path d="M204.227 56V55.3409H204.454C204.814 55.3409 205.098 55.2784 205.306 55.1534C205.514 55.0246 205.67 54.8163 205.772 54.5284C205.878 54.2405 205.954 53.8561 205.999 53.375C206.045 52.8902 206.085 52.2898 206.119 51.5739L206.34 47.2727H211.613V56H210.925V47.9318H206.994L206.795 51.7557C206.761 52.4602 206.711 53.0777 206.647 53.608C206.586 54.1383 206.482 54.5814 206.335 54.9375C206.191 55.2898 205.973 55.5549 205.681 55.733C205.389 55.911 204.995 56 204.499 56H204.227Z"/>
        <path d="M215.217 55.0966L220.222 47.2727H221.103V56H220.41V48.1761L215.41 56H214.523V47.2727H215.217V55.0966Z"/>
        <path d="M227.221 56.1818C226.501 56.1818 225.861 55.9886 225.3 55.6023C224.74 55.2121 224.299 54.6761 223.977 53.9943C223.655 53.3125 223.494 52.536 223.494 51.6648C223.494 50.7898 223.655 50.0133 223.977 49.3352C224.299 48.6534 224.74 48.1174 225.3 47.7273C225.861 47.3371 226.501 47.1421 227.221 47.1421C227.941 47.1421 228.581 47.3371 229.141 47.7273C229.702 48.1174 230.143 48.6534 230.465 49.3352C230.787 50.0171 230.948 50.7936 230.948 51.6648C230.948 52.536 230.787 53.3125 230.465 53.9943C230.143 54.6761 229.702 55.2121 229.141 55.6023C228.581 55.9886 227.941 56.1818 227.221 56.1818ZM227.221 55.5398C227.831 55.5398 228.363 55.3674 228.817 55.0227C229.276 54.678 229.63 54.2121 229.88 53.625C230.134 53.0379 230.261 52.3845 230.261 51.6648C230.261 50.9451 230.134 50.2936 229.88 49.7102C229.626 49.1231 229.272 48.6572 228.817 48.3125C228.363 47.964 227.831 47.7898 227.221 47.7898C226.611 47.7898 226.079 47.964 225.624 48.3125C225.17 48.6572 224.816 49.1231 224.562 49.7102C224.308 50.2936 224.181 50.9451 224.181 51.6648C224.181 52.3845 224.306 53.0379 224.556 53.625C224.81 54.2121 225.164 54.678 225.619 55.0227C226.077 55.3674 226.611 55.5398 227.221 55.5398Z"/>
        <path d="M232.138 47.9318V47.2727H238.684V47.9318H235.775V56H235.082V47.9318H232.138Z"/>
        <path d="M243.942 56.1818C243.155 56.1818 242.469 55.9867 241.886 55.5966C241.302 55.2064 240.852 54.6724 240.533 53.9943C240.215 53.3163 240.056 52.5436 240.056 51.6761C240.056 50.8049 240.215 50.0284 240.533 49.3466C240.855 48.6648 241.297 48.1269 241.857 47.733C242.418 47.339 243.058 47.1421 243.778 47.1421C244.266 47.1421 244.728 47.2405 245.164 47.4375C245.603 47.6307 245.99 47.911 246.323 48.2784C246.66 48.6458 246.924 49.089 247.113 49.608C247.306 50.1269 247.403 50.7102 247.403 51.358V51.7898H240.494V51.1591H246.71C246.71 50.5265 246.581 49.9564 246.323 49.4489C246.066 48.9413 245.715 48.5379 245.272 48.2386C244.829 47.9394 244.331 47.7898 243.778 47.7898C243.198 47.7898 242.681 47.9527 242.227 48.2784C241.776 48.6004 241.418 49.036 241.153 49.5852C240.891 50.1345 240.755 50.7481 240.744 51.4261V51.7102C240.744 52.4375 240.87 53.0909 241.124 53.6705C241.382 54.2462 241.749 54.7027 242.227 55.0398C242.704 55.3731 243.276 55.5398 243.942 55.5398C244.42 55.5398 244.827 55.4602 245.164 55.3011C245.505 55.1383 245.783 54.9413 245.999 54.7102C246.215 54.4792 246.378 54.2557 246.488 54.0398L247.119 54.2955C246.986 54.5871 246.78 54.8788 246.499 55.1705C246.223 55.4583 245.871 55.6989 245.442 55.8921C245.018 56.0852 244.518 56.1818 243.942 56.1818Z"/>
        <path d="M249.789 56V47.2727H250.482V51.3239H251.488L254.835 47.2727H255.732L252.255 51.4602L255.835 56H254.948L251.8 51.983H250.482V56H249.789Z"/>
        <path d="M260.023 56.1875C259.52 56.1875 259.058 56.0871 258.637 55.8864C258.22 55.6856 257.885 55.3921 257.631 55.0057C257.381 54.6193 257.256 54.1496 257.256 53.5966C257.256 53.233 257.321 52.9129 257.45 52.6364C257.578 52.3599 257.777 52.1212 258.046 51.9205C258.315 51.7197 258.66 51.5549 259.08 51.4261C259.501 51.2936 260.003 51.1913 260.586 51.1193C261.029 51.0663 261.425 51.0152 261.773 50.9659C262.122 50.9129 262.395 50.8314 262.592 50.7216C262.792 50.6117 262.893 50.4451 262.893 50.2216V49.858C262.893 49.2216 262.692 48.7159 262.29 48.3409C261.889 47.9659 261.336 47.7784 260.631 47.7784C260.006 47.7784 259.48 47.9167 259.052 48.1932C258.628 48.4659 258.33 48.8182 258.16 49.25L257.506 49.0057C257.673 48.589 257.914 48.2424 258.228 47.9659C258.546 47.6894 258.91 47.483 259.319 47.3466C259.732 47.2102 260.164 47.1421 260.614 47.1421C261.005 47.1421 261.376 47.197 261.728 47.3068C262.084 47.4167 262.4 47.5833 262.677 47.8068C262.957 48.0303 263.179 48.3163 263.342 48.6648C263.504 49.0095 263.586 49.4224 263.586 49.9034V56H262.893V54.4261H262.842C262.69 54.7519 262.482 55.0492 262.217 55.3182C261.955 55.5833 261.639 55.7955 261.268 55.9546C260.9 56.1099 260.486 56.1875 260.023 56.1875ZM260.092 55.5455C260.637 55.5455 261.12 55.4129 261.54 55.1477C261.965 54.8788 262.296 54.5114 262.535 54.0455C262.773 53.5796 262.893 53.0511 262.893 52.4602V51.1761C262.806 51.2519 262.679 51.3201 262.512 51.3807C262.349 51.4375 262.164 51.4886 261.955 51.5341C261.751 51.5758 261.535 51.6136 261.308 51.6477C261.084 51.678 260.866 51.7064 260.654 51.733C260.018 51.8087 259.499 51.9261 259.097 52.0852C258.7 52.2405 258.408 52.4451 258.222 52.6989C258.04 52.9527 257.95 53.2595 257.95 53.6193C257.95 54.214 258.154 54.6837 258.563 55.0284C258.972 55.3731 259.482 55.5455 260.092 55.5455Z"/>
    </symbol>
</svg>
